# xmcd CD database file
#
# Track frame offsets:
#	150
#	15904
#	35656
#	52267
#	71355
#	86755
#	107117
#	125330
#	140532
#	154685
#	169014
#	184322
#
# Disc length: 2658 seconds
#
# Revision: 0
# Processed by: cddbd v1.5.2PL0 Copyright (c) Steve Scherf et al.
# Submitted via: CDex 1.79
#
DISCID=a10a600c
DTITLE=Jamie Richards - Sideways
DYEAR=2010
DGENRE=Country
TTITLE0=Sideways 
TTITLE1=Half Drunk 
TTITLE2=When Love Leaves 
TTITLE3=A Whole Lot Loneley
TTITLE4=Easier By Now 
TTITLE5=Makeup And Faded Blue Jeans 
TTITLE6=Silver Cross 
TTITLE7=Enjoy The Ride 
TTITLE8=Rural Route 
TTITLE9=Broken Through 
TTITLE10=Down The Road 
TTITLE11=I Can Party When I Need To 
EXTD=YEAR: 2010
EXTT0=
EXTT1=
EXTT2=
EXTT3=
EXTT4=
EXTT5=
EXTT6=
EXTT7=
EXTT8=
EXTT9=
EXTT10=
EXTT11=
PLAYORDER=
